<?xml version="1.0" encoding="UTF-8"?><svg id="Layer_1" xmlns="http://www.w3.org/2000/svg" xmlns:xlink="http://www.w3.org/1999/xlink" viewBox="0 0 24 24"><defs><style>.cls-1{fill:url(#linear-gradient);}.cls-2{stroke:#da0410;stroke-width:1.5px;}.cls-2,.cls-3{fill:none;}.cls-2,.cls-3,.cls-4,.cls-5{stroke-linecap:round;stroke-linejoin:round;}.cls-3,.cls-5{stroke:#fff;stroke-width:.5px;}.cls-4{fill:#da0410;stroke:#f1ede4;stroke-width:.75px;}.cls-5{filter:url(#drop-shadow-1);}</style><linearGradient id="linear-gradient" x1="-1.36" y1="12.87" x2="25.36" y2="12.87" gradientUnits="userSpaceOnUse"><stop offset="0" stop-color="#172c42"/><stop offset="1" stop-color="#205581"/></linearGradient><filter id="drop-shadow-1" x="0" y="2" width="24" height="22" filterUnits="userSpaceOnUse"><feOffset dx="0" dy="1"/><feGaussianBlur result="blur" stdDeviation="1"/><feFlood flood-color="#000" flood-opacity=".4"/><feComposite in2="blur" operator="in"/><feComposite in="SourceGraphic"/></filter></defs><rect class="cls-1" x="-1.36" y="-.49" width="26.72" height="26.72"/><path class="cls-5" d="M7.14,18.96c-3.38-2.68-3.94-7.59-1.25-10.97,2.68-3.38,7.59-3.94,10.97-1.25,3.38,2.68,3.94,7.59,1.25,10.97-.37.46-.79.88-1.25,1.25H7.14Z"/><path class="cls-2" d="M13.26,11.63l4.22-4.34"/><line class="cls-3" x1="12" y1="5.04" x2="12" y2="6.23"/><line class="cls-3" x1="4.19" y1="12.89" x2="5.53" y2="12.89"/><line class="cls-3" x1="19.81" y1="12.89" x2="18.69" y2="12.89"/><line class="cls-3" x1="6.52" y1="7.29" x2="7.27" y2="8.04"/><path class="cls-4" d="M10.27,12.89c0,.96.78,1.73,1.73,1.73s1.73-.78,1.73-1.73-.78-1.73-1.73-1.73-1.73.78-1.73,1.73"/></svg>