<?xml version="1.0" encoding="UTF-8"?><svg id="Layer_1" xmlns="http://www.w3.org/2000/svg" viewBox="0 0 24 24"><defs><style>.cls-1{stroke:#da0410;}.cls-1,.cls-2{fill:none;}.cls-1,.cls-2,.cls-3{stroke-linecap:round;stroke-linejoin:round;stroke-width:1.5px;}.cls-2{stroke:#fff;}.cls-3{fill:#da0410;stroke:#f1ede4;}</style></defs><rect x="-1.36" y="-.49" width="26.72" height="26.72"/><path class="cls-2" d="M6.4,20c-3.89-3.09-4.54-8.75-1.45-12.65,3.09-3.89,8.75-4.54,12.65-1.45,3.89,3.09,4.54,8.75,1.45,12.65-.43.54-.91,1.02-1.45,1.45H6.4Z"/><path class="cls-1" d="M13.45,11.55l5.49-5.61"/><line class="cls-2" x1="12" y1="4.42" x2="12" y2="5.33"/><line class="cls-2" x1="3.66" y1="13" x2="4.54" y2="13"/><line class="cls-2" x1="20.78" y1="13" x2="19.71" y2="13"/><line class="cls-2" x1="5.68" y1="6.55" x2="6.54" y2="7.41"/><path class="cls-3" d="M10,13c0,1.1.9,2,2,2s2-.9,2-2-.9-2-2-2-2,.9-2,2"/></svg>