<?xml version="1.0" encoding="UTF-8"?>
<svg id="Layer_1" xmlns="http://www.w3.org/2000/svg" version="1.1" viewBox="0 0 24 24">
  <!-- Generator: Adobe Illustrator 30.0.0, SVG Export Plug-In . SVG Version: 2.1.1 Build 123)  -->
  <defs>
    <style>
      .st0 {
        stroke: #da0410;
      }

      .st0, .st1 {
        fill: none;
      }

      .st0, .st1, .st2 {
        stroke-linecap: round;
        stroke-linejoin: round;
        stroke-width: 1.5px;
      }

      .st1 {
        stroke: #fff;
      }

      .st2 {
        fill: #da0410;
        stroke: #f1ede4;
      }
    </style>
  </defs>
  <rect x="-1.4" y="-.5" width="26.7" height="26.7"/>
  <path class="st1" d="M6.4,20c-3.9-3.1-4.5-8.8-1.4-12.6,3.1-3.9,8.8-4.5,12.6-1.4,3.9,3.1,4.5,8.8,1.4,12.6-.4.5-.9,1-1.4,1.4H6.4Z"/>
  <path class="st0" d="M13.4,11.6l5.5-5.6"/>
  <line class="st1" x1="12" y1="4.4" x2="12" y2="5.3"/>
  <line class="st1" x1="3.7" y1="13" x2="4.5" y2="13"/>
  <line class="st1" x1="20.8" y1="13" x2="19.7" y2="13"/>
  <line class="st1" x1="5.7" y1="6.5" x2="6.5" y2="7.4"/>
  <path class="st2" d="M10,13c0,1.1.9,2,2,2s2-.9,2-2-.9-2-2-2-2,.9-2,2"/>
</svg>