<?xml version="1.0" encoding="UTF-8"?>
<svg id="Layer_1" xmlns="http://www.w3.org/2000/svg" xmlns:xlink="http://www.w3.org/1999/xlink" version="1.1" viewBox="0 0 24 24">
  <!-- Generator: Adobe Illustrator 30.0.0, SVG Export Plug-In . SVG Version: 2.1.1 Build 123)  -->
  <defs>
    <style>
      .st0 {
        fill: url(#linear-gradient);
      }

      .st1 {
        stroke: #da0410;
        stroke-width: 1.5px;
      }

      .st1, .st2 {
        fill: none;
      }

      .st1, .st2, .st3, .st4 {
        stroke-linecap: round;
        stroke-linejoin: round;
      }

      .st2, .st4 {
        stroke: #fff;
        stroke-width: .5px;
      }

      .st3 {
        fill: #da0410;
        stroke: #f1ede4;
        stroke-width: .8px;
      }

      .st4 {
        filter: url(#drop-shadow-1);
      }
    </style>
    <linearGradient id="linear-gradient" x1="-1.4" y1="12.9" x2="25.4" y2="12.9" gradientUnits="userSpaceOnUse">
      <stop offset="0" stop-color="#172c42"/>
      <stop offset="1" stop-color="#205581"/>
    </linearGradient>
    <filter id="drop-shadow-1" x="0" y="2" width="24" height="22" filterUnits="userSpaceOnUse">
      <feOffset dx="0" dy="1"/>
      <feGaussianBlur result="blur" stdDeviation="1"/>
      <feFlood flood-color="#000" flood-opacity=".4"/>
      <feComposite in2="blur" operator="in"/>
      <feComposite in="SourceGraphic"/>
    </filter>
  </defs>
  <rect class="st0" x="-1.4" y="-.5" width="26.7" height="26.7"/>
  <path class="st4" d="M7.1,19c-3.4-2.7-3.9-7.6-1.3-11,2.7-3.4,7.6-3.9,11-1.3,3.4,2.7,3.9,7.6,1.3,11-.4.5-.8.9-1.3,1.3H7.1Z"/>
  <path class="st1" d="M13.3,11.6l4.2-4.3"/>
  <line class="st2" x1="12" y1="5" x2="12" y2="6.2"/>
  <line class="st2" x1="4.2" y1="12.9" x2="5.5" y2="12.9"/>
  <line class="st2" x1="19.8" y1="12.9" x2="18.7" y2="12.9"/>
  <line class="st2" x1="6.5" y1="7.3" x2="7.3" y2="8"/>
  <path class="st3" d="M10.3,12.9c0,1,.8,1.7,1.7,1.7s1.7-.8,1.7-1.7-.8-1.7-1.7-1.7-1.7.8-1.7,1.7"/>
</svg>